# xmcd CD database file
#
# Track frame offsets:
#	150
#	12956
#	26877
#	38940
#	51965
#	65754
#	79749
#	93194
#	106631
#	119598
#	132081
#	146375
#	157877
#	169638
#	182548
#	194722
#	207703
#	220543
#	233829
#	247114
#
# Disc length: 3475 seconds
#
# Revision: 0
# Processed by: cddbd v1.4PL0 Copyright (c) Steve Scherf et al.
# Submitted via: CDex 1.50Beta7
#
DISCID=190d9114
DTITLE=The Andrews Sisters - Best of
DYEAR=1940
DGENRE=Jazz
TTITLE0=Beat me daddy, 8 to the bar
TTITLE1=Bei mir bist du schon
TTITLE2=Boogie woogie bugle boy
TTITLE3=Chatanooga choo choo
TTITLE4=Ciribiribirin
TTITLE5=Don't fence me in
TTITLE6=Don't sit under the apple tree
TTITLE7=I'll be with you in apple blossom time
TTITLE8=I've got a guy in Kalamazoo
TTITLE9=Oh Johnny! Oh Johnny! Oh!
TTITLE10=Pennsylivania 65000
TTITLE11=Say Si Si
TTITLE12=Scrub me mother with a boogie beat
TTITLE13=Short'nin bread
TTITLE14=South American way
TTITLE15=Beer barrel polka
TTITLE16=The Jumpin' jive
TTITLE17=The woodpeckeer song
TTITLE18=When a Prince of a fella meets a Cinderella
TTITLE19=Yodelin' jive
EXTD=YEAR: 1940
EXTT0=
EXTT1=
EXTT2=
EXTT3=
EXTT4=
EXTT5=
EXTT6=
EXTT7=
EXTT8=
EXTT9=
EXTT10=
EXTT11=
EXTT12=
EXTT13=
EXTT14=
EXTT15=
EXTT16=
EXTT17=
EXTT18=
EXTT19=
PLAYORDER=
